<svg width="47" height="47" viewBox="0 0 47 47" fill="none" xmlns="http://www.w3.org/2000/svg">
<path d="M24.4292 14.7887C24.3477 14.7109 24.2394 14.6674 24.1267 14.6674C24.0141 14.6674 23.9057 14.7109 23.8243 14.7887L13.7563 24.4066C13.7136 24.4475 13.6796 24.4967 13.6564 24.5511C13.6331 24.6055 13.6212 24.6641 13.6213 24.7233L13.6196 33.75C13.6196 34.2141 13.804 34.6592 14.1322 34.9874C14.4604 35.3156 14.9055 35.5 15.3696 35.5H20.6251C20.8572 35.5 21.0797 35.4078 21.2438 35.2437C21.4079 35.0796 21.5001 34.8571 21.5001 34.625V27.1875C21.5001 27.0715 21.5462 26.9602 21.6282 26.8781C21.7103 26.7961 21.8216 26.75 21.9376 26.75H26.3126C26.4286 26.75 26.5399 26.7961 26.622 26.8781C26.704 26.9602 26.7501 27.0715 26.7501 27.1875V34.625C26.7501 34.8571 26.8423 35.0796 27.0064 35.2437C27.1705 35.4078 27.393 35.5 27.6251 35.5H32.8784C33.3425 35.5 33.7876 35.3156 34.1158 34.9874C34.444 34.6592 34.6284 34.2141 34.6284 33.75V24.7233C34.6284 24.6641 34.6165 24.6055 34.5933 24.5511C34.5701 24.4967 34.5361 24.4475 34.4933 24.4066L24.4292 14.7887Z" fill="black"/>
<path d="M36.9717 22.602L32.881 18.6885V12.75C32.881 12.5179 32.7888 12.2954 32.6248 12.1313C32.4607 11.9672 32.2381 11.875 32.006 11.875H29.381C29.149 11.875 28.9264 11.9672 28.7623 12.1313C28.5982 12.2954 28.506 12.5179 28.506 12.75V14.5L25.3385 11.4714C25.0421 11.1717 24.6013 11 24.125 11C23.6503 11 23.2106 11.1717 22.9142 11.472L11.2822 22.6009C10.9421 22.929 10.8994 23.4688 11.2089 23.8242C11.2867 23.9139 11.3818 23.9869 11.4887 24.0387C11.5955 24.0905 11.7117 24.12 11.8303 24.1254C11.9489 24.1308 12.0673 24.112 12.1785 24.0702C12.2896 24.0284 12.391 23.9644 12.4766 23.8822L23.8242 13.0387C23.9057 12.9609 24.014 12.9174 24.1267 12.9174C24.2393 12.9174 24.3477 12.9609 24.4291 13.0387L35.7778 23.8822C35.945 24.0425 36.1689 24.13 36.4005 24.1255C36.6321 24.121 36.8524 24.0248 37.0132 23.8581C37.349 23.5103 37.3211 22.9361 36.9717 22.602Z" fill="black"/>
<circle cx="23.5" cy="23.5" r="23" stroke="black"/>
</svg>
